<svg width="520" height="600" viewBox="0 0 520 600" fill="none" xmlns="http://www.w3.org/2000/svg">
<path d="M0 165.2V434.698C0 445.559 5.7 455.608 15 461.09L245 595.889C254.3 601.37 265.7 601.37 275 595.889L505 461.09C514.3 455.608 520 445.559 520 434.698V165.2C520 154.339 514.3 144.29 505 138.809L275 4.11098C265.7 -1.37033 254.3 -1.37033 245 4.11098L15 138.809C5.7 144.29 0 154.339 0 165.2Z" fill="url(#paint0_linear_831_12926)"/>
<path d="M31 183.37V416.63C31 427.491 36.7 437.54 46 443.021L245 559.651C254.3 565.133 265.7 565.133 275 559.651L474 443.021C483.3 437.54 489 427.491 489 416.63V183.37C489 172.509 483.3 162.46 474 156.978L275 40.4498C265.7 34.9685 254.3 34.9685 245 40.4498L46 156.978C36.7 162.46 31 172.509 31 183.37Z" fill="url(#paint1_linear_831_12926)"/>
<path d="M520 220.927H0V393.08H520V220.927Z" fill="url(#paint2_linear_831_12926)"/>
<path d="M246.5 467.18L247.5 472.965L259.1 469.413L246.5 467.18Z" fill="white"/>
<path d="M258.599 458.755L254.199 461.191L264.399 467.89L258.599 458.755Z" fill="white"/>
<path d="M266.9 466.368L277.3 463.932L274.4 460.379L266.9 466.368L277.3 463.932Z" fill="white"/>
<path d="M257.9 457.74C255.2 457.74 253 455.506 253 452.766C253 450.025 255.2 447.792 257.9 447.792C260.6 447.792 262.8 450.025 262.8 452.766C262.8 455.506 260.6 457.74 257.9 457.74ZM257.9 450.431C256.6 450.431 255.6 451.446 255.6 452.766C255.6 454.085 256.6 455.1 257.9 455.1C259.2 455.1 260.2 454.085 260.2 452.766C260.3 451.446 259.2 450.431 257.9 450.431Z" fill="white"/>
<path d="M245.9 498.139C243.2 498.139 241 495.906 241 493.166C241 490.425 243.2 488.192 245.9 488.192C248.6 488.192 250.8 490.425 250.8 493.166C250.8 495.906 248.6 498.139 245.9 498.139ZM245.9 490.831C244.6 490.831 243.6 491.846 243.6 493.166C243.6 494.485 244.6 495.5 245.9 495.5C247.2 495.5 248.2 494.485 248.2 493.166C248.3 491.948 247.2 490.831 245.9 490.831Z" fill="white"/>
<path d="M297.599 468.296C294.899 468.296 292.699 466.063 292.699 463.322C292.699 460.582 294.899 458.349 297.599 458.349C300.299 458.349 302.499 460.582 302.499 463.322C302.499 466.063 300.299 468.296 297.599 468.296ZM297.599 460.988C296.299 460.988 295.299 462.003 295.299 463.322C295.299 464.642 296.299 465.657 297.599 465.657C298.899 465.657 299.899 464.642 299.899 463.322C299.899 462.104 298.899 460.988 297.599 460.988Z" fill="white"/>
<path d="M270.3 530.519C267.6 530.519 265.4 528.286 265.4 525.546C265.4 522.805 267.6 520.572 270.3 520.572C273 520.572 275.2 522.805 275.2 525.546C275.1 528.286 272.9 530.519 270.3 530.519ZM270.3 523.211C269 523.211 268 524.226 268 525.546C268 526.865 269 527.88 270.3 527.88C271.6 527.88 272.6 526.865 272.6 525.546C272.6 524.226 271.5 523.211 270.3 523.211Z" fill="white"/>
<path d="M277.8 429.927C275.1 429.927 272.9 427.694 272.9 424.953C272.9 422.213 275.1 419.979 277.8 419.979C280.5 419.979 282.7 422.213 282.7 424.953C282.7 427.694 280.5 429.927 277.8 429.927ZM277.8 422.619C276.5 422.619 275.5 423.634 275.5 424.953C275.5 426.273 276.5 427.288 277.8 427.288C279.1 427.288 280.1 426.273 280.1 424.953C280.1 423.634 279.1 422.619 277.8 422.619Z" fill="white"/>
<path d="M274.401 428.506L260.801 448.807C261.301 449.112 261.701 449.619 262.001 450.127L275.801 429.521C275.301 429.216 274.801 428.912 274.401 428.506Z" fill="white"/>
<path d="M233.201 536.914C230.501 536.914 228.301 534.681 228.301 531.941C228.301 529.2 230.501 526.967 233.201 526.967C235.901 526.967 238.101 529.2 238.101 531.941C238.101 534.681 235.901 536.914 233.201 536.914ZM233.201 529.606C231.901 529.606 230.901 530.621 230.901 531.941C230.901 533.26 231.901 534.275 233.201 534.275C234.501 534.275 235.501 533.26 235.501 531.941C235.501 530.621 234.501 529.606 233.201 529.606Z" fill="white"/>
<path d="M237.902 530.621L266.102 528.083C265.802 527.576 265.602 526.967 265.502 526.459L237.102 529.098C237.402 529.403 237.702 530.012 237.902 530.621Z" fill="white"/>
<path d="M235.901 527.88L245.001 498.037C244.401 497.936 243.901 497.733 243.401 497.428L234.301 527.169C234.901 527.372 235.501 527.575 235.901 527.88Z" fill="white"/>
<path d="M259.2 447.996V445.153C259.2 436.322 265.2 428.912 273.2 426.882C273 426.273 272.8 425.664 272.8 425.055C272.8 424.852 272.8 424.548 272.9 424.345C263.6 426.578 256.6 435.104 256.6 445.153V448.097C257 447.996 257.4 447.894 257.9 447.894C258.4 447.793 258.8 447.894 259.2 447.996Z" fill="white"/>
<path d="M282.601 424.243C282.601 424.446 282.701 424.751 282.701 424.954C282.701 425.563 282.601 426.273 282.301 426.781C290.401 428.811 296.301 436.221 296.301 445.052V458.552C296.701 458.451 297.101 458.349 297.601 458.349C298.001 458.349 298.501 458.451 298.901 458.552V445.153C298.901 435.003 291.901 426.476 282.601 424.243Z" fill="white"/>
<path d="M266 527.982L261.8 532.245C258.3 535.798 253.6 537.727 248.7 537.727C244.7 537.727 240.8 536.407 237.7 533.971C237.3 534.783 236.8 535.493 236.1 536.001C239.7 538.742 244.1 540.264 248.8 540.264C254.4 540.264 259.7 538.031 263.7 533.971L267.9 529.708C267 529.302 266.4 528.692 266 527.982Z" fill="white"/>
<path d="M243.5 497.53C242.8 497.124 242.1 496.414 241.7 495.703L233.8 503.722C227.2 510.421 225.9 520.369 229.8 528.388C230.4 527.779 231.2 527.373 232 527.17C228.6 520.166 229.8 511.335 235.5 505.549L243.5 497.53Z" fill="white"/>
<path d="M296.3 468.094V480.68C296.3 483.827 295.6 486.771 294.2 489.41C293.4 485.248 291.4 481.492 288.4 478.447C287.7 477.737 287 477.128 286.2 476.519V445.052C286.2 440.281 282.4 436.424 277.7 436.424C273 436.424 269.2 440.281 269.2 445.052V455.608C269.2 456.319 269.8 456.928 270.5 456.928C271.2 456.928 271.8 456.319 271.8 455.608V445.153C271.8 441.804 274.5 439.164 277.7 439.164C281 439.164 283.6 441.905 283.6 445.153V474.996C280.5 473.27 277 472.357 273.4 472.357C272.8 472.357 272.3 472.357 271.7 472.458V471.342C271.7 470.631 271.1 470.022 270.4 470.022C269.7 470.022 269.1 470.631 269.1 471.342V473.879V480.883C269.1 483.421 270.2 485.857 272.2 487.481C273.7 488.699 275.6 489.41 277.5 489.511C278.6 490.628 279.2 492.15 279.2 493.775C279.2 495.399 278.6 496.921 277.5 498.038L275.9 499.662C271.2 499.256 266.8 497.023 263.6 493.369C260.7 490.019 259 485.654 258.9 481.086V471.849C258.9 471.139 258.3 470.53 257.6 470.53C256.9 470.53 256.3 471.139 256.3 471.849V480.579L248 489.004C248.7 489.41 249.4 490.019 249.8 490.831L256.6 483.929C257.1 487.583 258.6 491.135 260.9 494.079L242.4 512.858C240.8 514.482 239.9 516.613 239.9 518.948C239.9 521.283 240.8 523.414 242.4 525.038C244 526.662 246.1 527.576 248.4 527.576C250.7 527.576 252.8 526.662 254.4 525.038L277.3 501.793L279.3 499.763C280.9 498.139 281.8 496.008 281.8 493.673C281.8 491.338 280.9 489.207 279.3 487.583C279.1 487.38 278.9 487.278 278.7 487.075C277.2 485.857 275.3 485.147 273.4 485.045C272.3 483.928 271.6 482.406 271.6 480.782V474.894C276 474.488 280.4 475.707 284 478.244C284.9 478.853 285.7 479.564 286.4 480.274C289.8 483.725 291.7 488.293 291.8 493.165V493.572C291.8 498.647 289.9 503.316 286.4 506.869L272.4 521.08C273.2 521.486 273.8 522.095 274.2 522.907L288.2 508.696C292.2 504.636 294.4 499.256 294.4 493.572C294.4 493.572 294.4 493.572 294.4 493.47C297.2 489.714 298.7 485.35 298.7 480.579V467.992C298.3 468.094 297.9 468.195 297.4 468.195C297.2 468.297 296.7 468.195 296.3 468.094ZM252.9 523.11C251.8 524.226 250.3 524.835 248.7 524.835C247.1 524.835 245.6 524.226 244.5 523.11C243.4 521.993 242.8 520.471 242.8 518.846C242.8 517.222 243.4 515.7 244.5 514.583L262.9 495.906C265.9 498.951 269.7 500.981 273.9 501.793L252.9 523.11Z" fill="white"/>
<path d="M291.601 489.511C291.401 488.395 291.001 487.278 290.601 486.263L272.001 479.665C271.901 479.665 271.901 479.665 271.801 479.665V480.68C271.801 480.985 271.801 481.188 271.901 481.391L290.501 487.989L272.001 520.978C272.201 521.079 272.501 521.181 272.701 521.384L272.601 521.282L275.401 518.44L291.601 489.511Z" fill="white"/>
<path d="M277.699 489.41C277.399 489.308 277.199 489.308 276.899 489.308L270.999 497.226L259.199 474.793V478.447L269.299 497.53C270.199 498.038 271.099 498.342 272.099 498.647L278.399 490.222C278.199 489.917 277.999 489.613 277.699 489.41Z" fill="white"/>
<path d="M294.301 459.77L286.301 452.563V454.898L293.301 461.191C293.501 460.683 293.801 460.176 294.301 459.77Z" fill="white"/>
<path d="M294.002 466.672L287.602 477.635C287.902 477.939 288.202 478.142 288.502 478.447C288.602 478.549 288.702 478.752 288.902 478.853L295.502 467.687C294.902 467.484 294.402 467.078 294.002 466.672Z" fill="white"/>
<path d="M116.5 361.919C106.7 361.919 98.0996 360.193 90.8996 356.742C83.6996 353.291 77.6996 348.621 72.9996 342.836C68.2996 337.05 64.7996 330.858 62.4996 324.26C60.1996 317.662 59.0996 311.267 59.0996 305.075V301.726C59.0996 294.925 60.2996 288.225 62.6996 281.526C65.0996 274.827 68.6996 268.736 73.4996 263.255C78.2996 257.774 84.2996 253.409 91.4996 250.161C98.6996 246.913 107 245.289 116.6 245.289C126.1 245.289 134.5 246.913 141.7 250.161C148.9 253.409 154.9 257.774 159.8 263.255C164.6 268.736 168.2 274.827 170.6 281.526C173 288.225 174.2 295.026 174.2 301.726V305.075C174.2 311.267 173 317.662 170.7 324.26C168.4 330.858 164.8 337.05 160.1 342.836C155.4 348.621 149.4 353.189 142.2 356.742C134.9 360.193 126.3 361.919 116.5 361.919ZM116.5 342.023C122.1 342.023 127.1 341.008 131.6 338.978C136.1 336.948 139.9 334.208 143 330.553C146.1 327.001 148.5 322.839 150.2 318.271C151.8 313.703 152.7 308.831 152.7 303.654C152.7 298.173 151.9 293.199 150.2 288.53C148.5 283.861 146.1 279.801 143 276.349C139.9 272.898 136.1 270.157 131.7 268.229C127.3 266.3 122.3 265.387 116.7 265.387C111.2 265.387 106.3 266.3 101.8 268.229C97.2996 270.157 93.4996 272.797 90.3996 276.349C87.2996 279.801 84.8996 283.861 83.1996 288.53C81.5996 293.199 80.6996 298.173 80.6996 303.654C80.6996 308.831 81.4996 313.703 83.1996 318.271C84.7996 322.839 87.1996 327.001 90.3996 330.553C93.4996 334.106 97.2996 336.948 101.8 338.978C106.1 341.008 111 342.023 116.5 342.023Z" fill="white"/>
<path d="M230.799 361.918C221.299 361.918 213.099 360.395 206.499 357.249C199.799 354.102 194.799 349.839 191.399 344.256C187.999 338.775 186.299 332.481 186.299 325.579H206.999C206.999 328.523 207.799 331.365 209.399 334.105C210.999 336.846 213.599 339.079 217.099 340.805C220.599 342.53 225.199 343.343 230.899 343.343C236.199 343.343 240.499 342.632 243.999 341.109C247.499 339.587 249.999 337.557 251.799 335.121C253.499 332.684 254.399 329.842 254.399 326.696C254.399 322.838 252.799 319.793 249.499 317.357C246.199 315.022 241.099 313.5 234.099 312.891L224.599 311.977C214.199 311.064 205.799 307.714 199.599 302.03C193.399 296.345 190.299 288.732 190.299 279.394C190.299 272.289 191.899 266.198 195.199 261.123C198.499 256.048 203.099 252.089 208.999 249.348C214.899 246.608 221.899 245.187 229.799 245.187C238.099 245.187 245.199 246.608 251.199 249.551C257.199 252.495 261.799 256.555 265.099 261.935C268.299 267.213 269.899 273.507 269.899 280.612H248.999C248.999 277.668 248.299 274.928 246.899 272.39C245.499 269.852 243.399 267.721 240.499 266.097C237.599 264.473 233.999 263.661 229.599 263.661C225.399 263.661 221.999 264.371 219.199 265.894C216.499 267.315 214.399 269.243 212.999 271.68C211.599 274.014 210.899 276.653 210.899 279.495C210.899 282.947 212.099 285.89 214.599 288.529C217.099 291.067 220.999 292.59 226.399 292.996L235.799 293.909C243.699 294.518 250.499 296.142 256.299 298.883C262.099 301.624 266.699 305.278 269.999 309.947C273.299 314.616 274.899 320.199 274.899 326.797C274.899 333.801 273.099 339.891 269.499 345.17C265.899 350.448 260.799 354.61 254.199 357.553C247.699 360.497 239.799 361.918 230.799 361.918Z" fill="white"/>
<path d="M294.299 359.076V248.536H314.999V359.076H294.299ZM312.099 266.706V248.536H360.299V266.706H312.099ZM312.099 311.977V293.808H357.599V311.977H312.099ZM312.099 359.076V340.906H361.499V359.076H312.099Z" fill="white"/>
<path d="M383.199 359.076V247.826H404.399V359.178H383.199V359.076ZM401.399 325.173V306.598H422.599C426.799 306.598 430.299 305.786 433.299 304.06C436.199 302.335 438.499 300 440.099 296.955C441.699 293.91 442.499 290.459 442.499 286.703C442.499 282.643 441.699 279.09 440.099 276.146C438.499 273.101 436.199 270.766 433.299 269.142C430.399 267.518 426.799 266.605 422.599 266.605H401.399V248.029H420.799C429.899 248.029 437.699 249.552 444.099 252.597C450.499 255.642 455.399 259.905 458.799 265.59C462.199 271.172 463.899 277.872 463.899 285.688V288.124C463.899 295.737 462.199 302.335 458.799 307.918C455.399 313.602 450.499 317.865 444.099 320.91C437.699 323.955 429.899 325.478 420.799 325.478H401.399V325.173Z" fill="white"/>
<path fill-rule="evenodd" clip-rule="evenodd" d="M166.5 159.313C166.5 165.81 167 172.205 167.9 178.599L169.9 192.303C168.1 192.607 166.4 192.81 164.5 192.81C162.6 192.81 160.9 192.607 159.1 192.303L161.1 178.599C162 172.205 162.5 165.81 162.5 159.313V130.486C163.2 130.486 163.9 130.384 164.6 130.384C165.3 130.384 166 130.384 166.7 130.486V159.313H166.5ZM145.8 186.517L153.8 170.682C154.4 169.464 154.7 168.144 154.7 166.825V132.008C142.5 136.17 133.6 147.843 133.6 161.648C133.7 171.799 138.5 180.833 145.8 186.517ZM174.2 166.825C174.2 168.144 174.5 169.464 175.1 170.682L183.1 186.517C190.5 180.833 195.2 171.799 195.2 161.648C195.2 147.843 186.4 136.17 174.1 132.008V166.825H174.2Z" fill="white"/>
<path d="M385 151.498V150.787H388.4V151.498H385ZM386.3 155.253V151.295H387V155.253H386.3ZM389.1 155.253V150.889H389.8V155.253H389.1ZM391.2 155.253L389.3 150.889H390.1L391.4 154.137L392.7 150.889H393.5L391.6 155.253H391.2ZM392.9 155.253V150.889H393.6V155.253H392.9Z" fill="white"/>
<path d="M230.5 142.565C219 142.565 210.6 150.888 210.6 162.46V162.866C210.6 174.539 218.8 182.761 230.5 182.761C242.2 182.761 250.3 174.539 250.3 162.765V162.359C250.3 150.685 242.1 142.565 230.5 142.565ZM218.7 162.46C218.7 154.137 223.2 148.96 230.5 148.96C237.8 148.96 242.2 154.238 242.2 162.46V162.866C242.2 171.088 237.6 176.468 230.6 176.468C223.6 176.468 218.7 170.885 218.7 162.968V162.46Z" fill="white"/>
<path d="M286.399 141.042C285.099 140.636 284.099 140.535 282.499 140.535C276.299 140.535 272.699 144.087 272.699 150.381V153.527H261.899V150.076C261.899 146.93 263.799 146.219 265.299 146.219C266.499 146.219 267.499 146.524 268.099 146.727C268.199 146.727 268.299 146.727 268.399 146.727C268.499 146.625 268.499 146.625 268.499 146.524V141.448C268.499 141.347 268.399 141.245 268.299 141.144C266.999 140.738 265.999 140.636 264.499 140.636C258.199 140.636 254.699 144.087 254.699 150.482V182.05C254.699 182.254 254.799 182.355 254.999 182.355H261.499C261.699 182.355 261.799 182.254 261.799 182.05V158.907H272.599V181.847C272.599 182.051 272.699 182.152 272.899 182.152H279.399C279.599 182.152 279.699 182.051 279.699 181.847V158.907H285.799C285.999 158.907 286.099 158.806 286.099 158.603V153.73C286.099 153.527 285.999 153.426 285.799 153.426H279.699V150.076C279.699 146.93 281.599 146.219 283.099 146.219C284.399 146.219 285.399 146.524 285.999 146.727C286.099 146.727 286.199 146.727 286.299 146.727C286.399 146.727 286.399 146.625 286.399 146.524V141.448C286.599 141.245 286.599 141.144 286.399 141.042Z" fill="white"/>
<path d="M305.7 158.704C299.1 157.791 297.9 156.268 297.9 153.324C297.9 150.381 300.3 148.554 304.3 148.554C308.7 148.554 310.8 150.178 311.5 154.035C311.5 154.137 311.6 154.238 311.8 154.238H318.4C318.5 154.238 318.6 154.238 318.6 154.137C318.7 154.035 318.7 154.035 318.7 153.934C317.9 146.422 313 142.463 304.3 142.463C296.2 142.463 290.5 147.133 290.5 153.832C290.5 160.531 294.4 164.084 304.4 165.404C311.1 166.52 312.2 168.043 312.2 170.986C312.2 174.336 309.4 176.569 305.2 176.569C298.7 176.569 297.3 173.321 296.9 169.768C296.9 169.667 296.8 169.464 296.6 169.464H289.7C289.6 169.464 289.5 169.464 289.5 169.565C289.5 169.667 289.4 169.667 289.4 169.768C289.8 175.554 292.9 182.558 305.2 182.558C313.6 182.558 319.7 177.381 319.7 170.377C319.8 162.358 314.4 159.922 305.7 158.704Z" fill="white"/>
<path d="M347.599 156.268C345.199 154.035 341.899 152.817 338.099 152.817C329.599 152.817 323.699 158.907 323.699 167.637V168.043C323.699 176.772 329.599 182.66 338.299 182.66C345.799 182.66 350.699 179.208 351.599 173.22C351.599 173.118 351.599 173.017 351.499 173.017C351.399 172.915 351.399 172.915 351.299 172.915H344.999C344.899 172.915 344.699 173.017 344.699 173.118C344.199 175.859 342.099 177.178 338.499 177.178C333.999 177.178 331.299 174.438 330.999 169.464H351.399C351.599 169.464 351.699 169.362 351.699 169.159V167.231C351.699 162.561 350.299 158.806 347.599 156.268ZM331.199 164.592C331.899 160.531 334.399 158.197 338.099 158.197C342.099 158.197 344.299 160.328 344.599 164.592H331.199Z" fill="white"/>
<path d="M384.099 171.19C383.999 171.088 383.999 171.088 383.899 171.088H377.899C377.699 171.088 377.599 171.19 377.599 171.393C377.299 174.844 374.699 177.178 371.099 177.178C366.299 177.178 363.599 173.829 363.599 168.144V167.738C363.599 162.257 366.499 158.806 370.999 158.806C374.599 158.806 376.699 160.531 377.199 163.881C377.199 163.983 377.299 164.186 377.499 164.186H383.799C383.899 164.186 383.999 164.186 383.999 164.084C384.099 163.983 384.099 163.983 384.099 163.881C383.399 156.979 378.599 153.02 370.899 153.02C362.399 153.02 356.299 159.313 356.299 167.941V168.347C356.299 177.077 362.199 182.964 370.899 182.964C378.499 182.964 383.799 178.498 384.299 171.596C384.199 171.393 384.199 171.291 384.099 171.19Z" fill="white"/>
<defs>
<linearGradient id="paint0_linear_831_12926" x1="259.999" y1="597.252" x2="259.999" y2="84.2309" gradientUnits="userSpaceOnUse">
<stop stop-color="#37693B"/>
<stop offset="1" stop-color="#339933"/>
</linearGradient>
<linearGradient id="paint1_linear_831_12926" x1="259.999" y1="679.122" x2="259.999" y2="235.189" gradientUnits="userSpaceOnUse">
<stop stop-color="#339933"/>
<stop offset="1" stop-color="#37693B"/>
</linearGradient>
<linearGradient id="paint2_linear_831_12926" x1="260" y1="183.977" x2="260" y2="467.054" gradientUnits="userSpaceOnUse">
<stop stop-color="#339933"/>
<stop offset="1" stop-color="#37693B"/>
</linearGradient>
</defs>
</svg>
